<svg xmlns="http://www.w3.org/2000/svg" width="833.0075073242188" height="579.1836547851562" viewBox="-270.225830078125 -181.94361877441406 833.0075073242188 579.1836547851562"><title>Neo4j Graph Visualization</title><desc>Created using Neo4j (http://www.neo4j.com/)</desc><g class="layer relationships"><g class="relationship" transform="translate(163.8132942728638 361.49096587169873) rotate(249.86795415904555)"><path class="outline" fill="#D4D6D7" stroke="none" d="M 25 0.5 L 37.24724990473669 0.5 L 37.24724990473669 -0.5 L 25 -0.5 Z M 97.34490615473669 0.5 L 109.59215605947338 0.5 L 109.59215605947338 3.5 L 116.59215605947338 0 L 109.59215605947338 -3.5 L 109.59215605947338 -0.5 L 97.34490615473669 -0.5 Z"/><text text-anchor="middle" pointer-events="none" font-size="8px" fill="#000000" x="67.29607802973669" y="3" transform="rotate(180 67.29607802973669 0)" font-family="sans-serif">BELONGS_TO</text></g><g class="relationship" transform="translate(205.313552644877 148.6161451310712) rotate(197.0155830221811)"><path class="outline" fill="#D4D6D7" stroke="none" d="M 25 0.5 L 41.42793729892125 0.5 L 41.42793729892125 -0.5 L 25 -0.5 Z M 101.52559354892125 0.5 L 117.9535308478425 0.5 L 117.9535308478425 3.5 L 124.9535308478425 0 L 117.9535308478425 -3.5 L 117.9535308478425 -0.5 L 101.52559354892125 -0.5 Z"/><text text-anchor="middle" pointer-events="none" font-size="8px" fill="#000000" x="71.47676542392125" y="3" transform="rotate(180 71.47676542392125 0)" font-family="sans-serif">BELONGS_TO</text></g><g class="relationship" transform="translate(311.7728676385807 220.34529380939298) rotate(213.9709282946833)"><path class="outline" fill="#D4D6D7" stroke="none" d="M 25 0.5 L 30.63578163280218 0.5 L 30.63578163280218 -0.5 L 25 -0.5 Z M 90.73343788280218 0.5 L 96.36921951560436 0.5 L 96.36921951560436 3.5 L 103.36921951560436 0 L 96.36921951560436 -3.5 L 96.36921951560436 -0.5 L 90.73343788280218 -0.5 Z"/><text text-anchor="middle" pointer-events="none" font-size="8px" fill="#000000" x="60.68460975780218" y="3" transform="rotate(180 60.68460975780218 0)" font-family="sans-serif">BELONGS_TO</text></g><g class="relationship" transform="translate(257.1932453999638 270.09547067412797) rotate(246.8743182993304)"><path class="outline" fill="#D4D6D7" stroke="none" d="M 25 0.5 L 32.49799059997375 0.5 L 32.49799059997375 -0.5 L 25 -0.5 Z M 92.59564684997375 0.5 L 100.0936374499475 0.5 L 100.0936374499475 3.5 L 107.0936374499475 0 L 100.0936374499475 -3.5 L 100.0936374499475 -0.5 L 92.59564684997375 -0.5 Z"/><text text-anchor="middle" pointer-events="none" font-size="8px" fill="#000000" x="62.54681872497375" y="3" transform="rotate(180 62.54681872497375 0)" font-family="sans-serif">BELONGS_TO</text></g><g class="relationship" transform="translate(350.1298033278581 138.9273609436398) rotate(359.2245717409454)"><path class="outline" fill="#D4D6D7" stroke="none" d="M 25 0.5 L 29.565334988208754 0.5 L 29.565334988208754 -0.5 L 25 -0.5 Z M 89.66299123820875 0.5 L 94.22832622641751 0.5 L 94.22832622641751 3.5 L 101.22832622641751 0 L 94.22832622641751 -3.5 L 94.22832622641751 -0.5 L 89.66299123820875 -0.5 Z"/><text text-anchor="middle" pointer-events="none" font-size="8px" fill="#000000" x="59.614163113208754" y="3" font-family="sans-serif">BELONGS_TO</text></g><g class="relationship" transform="translate(350.1298033278581 138.9273609436398) rotate(536.1723882354429)"><path class="outline" fill="#D4D6D7" stroke="none" d="M 25 0.5 L 39.021170843076746 0.5 L 39.021170843076746 -0.5 L 25 -0.5 Z M 99.11882709307675 0.5 L 113.13999793615349 0.5 L 113.13999793615349 3.5 L 120.13999793615349 0 L 113.13999793615349 -3.5 L 113.13999793615349 -0.5 L 99.11882709307675 -0.5 Z"/><text text-anchor="middle" pointer-events="none" font-size="8px" fill="#000000" x="69.06999896807675" y="3" transform="rotate(180 69.06999896807675 0)" font-family="sans-serif">BELONGS_TO</text></g><g class="relationship" transform="translate(160.01784874216293 10.106691257619637) rotate(496.0301315663207)"><path class="outline" fill="#D4D6D7" stroke="none" d="M 25 0.5 L 34.59967650861107 0.5 L 34.59967650861107 -0.5 L 25 -0.5 Z M 94.69733275861107 0.5 L 104.29700926722214 0.5 L 104.29700926722214 3.5 L 111.29700926722214 0 L 104.29700926722214 -3.5 L 104.29700926722214 -0.5 L 94.69733275861107 -0.5 Z"/><text text-anchor="middle" pointer-events="none" font-size="8px" fill="#000000" x="64.64850463361107" y="3" transform="rotate(180 64.64850463361107 0)" font-family="sans-serif">BELONGS_TO</text></g><g class="relationship" transform="translate(234.84145347358537 -100.46665850894664) rotate(484.08572117685696)"><path class="outline" fill="#D4D6D7" stroke="none" d="M 25 0.5 L 33.20639171510604 0.5 L 33.20639171510604 -0.5 L 25 -0.5 Z M 93.30404796510604 0.5 L 101.51043968021207 0.5 L 101.51043968021207 3.5 L 108.51043968021207 0 L 101.51043968021207 -3.5 L 101.51043968021207 -0.5 L 93.30404796510604 -0.5 Z"/><text text-anchor="middle" pointer-events="none" font-size="8px" fill="#000000" x="63.25521984010604" y="3" transform="rotate(180 63.25521984010604 0)" font-family="sans-serif">BELONGS_TO</text></g><g class="relationship" transform="translate(278.34505514990656 -27.21974657599189) rotate(522.4920668952302)"><path class="outline" fill="#D4D6D7" stroke="none" d="M 25 0.5 L 28.488641878231178 0.5 L 28.488641878231178 -0.5 L 25 -0.5 Z M 88.58629812823118 0.5 L 92.07494000646236 0.5 L 92.07494000646236 3.5 L 99.07494000646236 0 L 92.07494000646236 -3.5 L 92.07494000646236 -0.5 L 88.58629812823118 -0.5 Z"/><text text-anchor="middle" pointer-events="none" font-size="8px" fill="#000000" x="58.53747000323118" y="3" transform="rotate(180 58.53747000323118 0)" font-family="sans-serif">BELONGS_TO</text></g><g class="relationship" transform="translate(161.38409215757252 -123.46807806945267) rotate(450.58601824445543)"><path class="outline" fill="#D4D6D7" stroke="none" d="M 25 0.5 L 33.24205003558929 0.5 L 33.24205003558929 -0.5 L 25 -0.5 Z M 93.33970628558929 0.5 L 101.58175632117857 0.5 L 101.58175632117857 3.5 L 108.58175632117857 0 L 101.58175632117857 -3.5 L 101.58175632117857 -0.5 L 93.33970628558929 -0.5 Z"/><text text-anchor="middle" pointer-events="none" font-size="8px" fill="#000000" x="63.29087816058929" y="3" transform="rotate(180 63.29087816058929 0)" font-family="sans-serif">BELONGS_TO</text></g><g class="relationship" transform="translate(516.3016475786308 -74.14871089912592) rotate(441.195987289448)"><path class="outline" fill="#D4D6D7" stroke="none" d="M 25 0.5 L 25.039324288725993 0.5 L 25.039324288725993 -0.5 L 25 -0.5 Z M 82.168230538726 0.5 L 82.20755482745199 0.5 L 82.20755482745199 3.5 L 89.20755482745199 0 L 82.20755482745199 -3.5 L 82.20755482745199 -0.5 L 82.168230538726 -0.5 Z"/><text text-anchor="middle" pointer-events="none" font-size="8px" fill="#000000" x="53.60377741372599" y="3" font-family="sans-serif">BELONGS_…</text></g><g class="relationship" transform="translate(476.3465695450091 137.21906717267223) rotate(300.2448798567674)"><path class="outline" fill="#D4D6D7" stroke="none" d="M 25 0.5 L 27.173743542893618 0.5 L 27.173743542893618 -0.5 L 25 -0.5 Z M 79.85343104289362 0.5 L 82.02717458578724 0.5 L 82.02717458578724 3.5 L 89.02717458578724 0 L 82.02717458578724 -3.5 L 82.02717458578724 -0.5 L 79.85343104289362 -0.5 Z"/><text text-anchor="middle" pointer-events="none" font-size="8px" fill="#000000" x="53.51358729289362" y="3" font-family="sans-serif">BELONGS…</text></g><g class="relationship" transform="translate(1.129313194160677 -22.60775277797898) rotate(424.4796499604355)"><path class="outline" fill="#D4D6D7" stroke="none" d="M 25 0.5 L 37.006450990374134 0.5 L 37.006450990374134 -0.5 L 25 -0.5 Z M 97.10410724037413 0.5 L 109.11055823074827 0.5 L 109.11055823074827 3.5 L 116.11055823074827 0 L 109.11055823074827 -3.5 L 109.11055823074827 -0.5 L 97.10410724037413 -0.5 Z"/><text text-anchor="middle" pointer-events="none" font-size="8px" fill="#000000" x="67.05527911537413" y="3" font-family="sans-serif">BELONGS_TO</text></g><g class="relationship" transform="translate(3.5087770076341207 -148.94611049738523) rotate(451.07898440179315)"><path class="outline" fill="#D4D6D7" stroke="none" d="M 25 0.5 L 29.631553480519536 0.5 L 29.631553480519536 -0.5 L 25 -0.5 Z M 89.72920973051953 0.5 L 94.36076321103907 0.5 L 94.36076321103907 3.5 L 101.36076321103907 0 L 94.36076321103907 -3.5 L 94.36076321103907 -0.5 L 89.72920973051953 -0.5 Z"/><text text-anchor="middle" pointer-events="none" font-size="8px" fill="#000000" x="59.680381605519536" y="3" transform="rotate(180 59.680381605519536 0)" font-family="sans-serif">BELONGS_TO</text></g><g class="relationship" transform="translate(-63.21526072419853 88.45203433455686) rotate(367.4135804339495)"><path class="outline" fill="#D4D6D7" stroke="none" d="M 25 0.5 L 29.548360032484226 0.5 L 29.548360032484226 -0.5 L 25 -0.5 Z M 89.64601628248423 0.5 L 94.19437631496845 0.5 L 94.19437631496845 3.5 L 101.19437631496845 0 L 94.19437631496845 -3.5 L 94.19437631496845 -0.5 L 89.64601628248423 -0.5 Z"/><text text-anchor="middle" pointer-events="none" font-size="8px" fill="#000000" x="59.597188157484226" y="3" font-family="sans-serif">BELONGS_TO</text></g><g class="relationship" transform="translate(-35.05601439841013 166.98455029423621) rotate(327.3044437879229)"><path class="outline" fill="#D4D6D7" stroke="none" d="M 25 0.5 L 25.555363156958386 0.5 L 25.555363156958386 -0.5 L 25 -0.5 Z M 82.68426940695838 0.5 L 83.23963256391677 0.5 L 83.23963256391677 3.5 L 90.23963256391677 0 L 83.23963256391677 -3.5 L 83.23963256391677 -0.5 L 82.68426940695838 -0.5 Z"/><text text-anchor="middle" pointer-events="none" font-size="8px" fill="#000000" x="54.119816281958386" y="3" font-family="sans-serif">BELONGS_…</text></g><g class="relationship" transform="translate(-35.05601439841013 166.98455029423621) rotate(250.27379149198538)"><path class="outline" fill="#D4D6D7" stroke="none" d="M 25 0.5 L 25.878266365691005 0.5 L 25.878266365691005 -0.5 L 25 -0.5 Z M 50.550141365691005 0.5 L 51.42840773138201 0.5 L 51.42840773138201 3.5 L 58.42840773138201 0 L 51.42840773138201 -3.5 L 51.42840773138201 -0.5 L 50.550141365691005 -0.5 Z"/><text text-anchor="middle" pointer-events="none" font-size="8px" fill="#000000" x="38.214203865691005" y="3" transform="rotate(180 38.214203865691005 0)" font-family="sans-serif">BE…</text></g><g class="relationship" transform="translate(-197.73260820246503 -47.807000014782204) rotate(391.05002092240363)"><path class="outline" fill="#D4D6D7" stroke="none" d="M 25 0.5 L 36.1618740139335 0.5 L 36.1618740139335 -0.5 L 25 -0.5 Z M 96.2595302639335 0.5 L 107.421404277867 0.5 L 107.421404277867 3.5 L 114.421404277867 0 L 107.421404277867 -3.5 L 107.421404277867 -0.5 L 96.2595302639335 -0.5 Z"/><text text-anchor="middle" pointer-events="none" font-size="8px" fill="#000000" x="66.2107021389335" y="3" font-family="sans-serif">BELONGS_TO</text></g><g class="relationship" transform="translate(-241.22582323393283 -152.94361461187123) rotate(427.52595905164424)"><path class="outline" fill="#D4D6D7" stroke="none" d="M 25 0.5 L 27.049011667186782 0.5 L 27.049011667186782 -0.5 L 25 -0.5 Z M 79.72869916718679 0.5 L 81.77771083437356 0.5 L 81.77771083437356 3.5 L 88.77771083437356 0 L 81.77771083437356 -3.5 L 81.77771083437356 -0.5 L 79.72869916718679 -0.5 Z"/><text text-anchor="middle" pointer-events="none" font-size="8px" fill="#000000" x="53.38885541718678" y="3" font-family="sans-serif">BELONGS…</text></g><g class="relationship" transform="translate(-78.28787491244296 24.104637847860868) rotate(389.9014785594598)"><path class="outline" fill="#D4D6D7" stroke="none" d="M 25 0.5 L 47.322488421004394 0.5 L 47.322488421004394 -0.5 L 25 -0.5 Z M 107.4201446710044 0.5 L 129.7426330920088 0.5 L 129.7426330920088 3.5 L 136.7426330920088 0 L 129.7426330920088 -3.5 L 129.7426330920088 -0.5 L 107.4201446710044 -0.5 Z"/><text text-anchor="middle" pointer-events="none" font-size="8px" fill="#000000" x="77.3713165460044" y="3" font-family="sans-serif">BELONGS_TO</text></g><g class="relationship" transform="translate(-1.7361895111387358 240.64430474835896) rotate(295.0985531303294)"><path class="outline" fill="#D4D6D7" stroke="none" d="M 25 0.5 L 41.49114758891663 0.5 L 41.49114758891663 -0.5 L 25 -0.5 Z M 101.58880383891663 0.5 L 118.07995142783327 0.5 L 118.07995142783327 3.5 L 125.07995142783327 0 L 118.07995142783327 -3.5 L 118.07995142783327 -0.5 L 101.58880383891663 -0.5 Z"/><text text-anchor="middle" pointer-events="none" font-size="8px" fill="#000000" x="71.53997571391663" y="3" font-family="sans-serif">BELONGS_TO</text></g><g class="relationship" transform="translate(-109.33078551959602 321.11614473178525) rotate(323.2065566290469)"><path class="outline" fill="#D4D6D7" stroke="none" d="M 25 0.5 L 33.63062208215281 0.5 L 33.63062208215281 -0.5 L 25 -0.5 Z M 93.72827833215281 0.5 L 102.35890041430562 0.5 L 102.35890041430562 3.5 L 109.35890041430562 0 L 102.35890041430562 -3.5 L 102.35890041430562 -0.5 L 93.72827833215281 -0.5 Z"/><text text-anchor="middle" pointer-events="none" font-size="8px" fill="#000000" x="63.67945020715281" y="3" font-family="sans-serif">BELONGS_TO</text></g><g class="relationship" transform="translate(-135.63649626511415 246.19916571293805) rotate(357.62444386328343)"><path class="outline" fill="#D4D6D7" stroke="none" d="M 25 0.5 L 33.45891140772956 0.5 L 33.45891140772956 -0.5 L 25 -0.5 Z M 93.55656765772956 0.5 L 102.01547906545912 0.5 L 102.01547906545912 3.5 L 109.01547906545912 0 L 102.01547906545912 -3.5 L 102.01547906545912 -0.5 L 93.55656765772956 -0.5 Z"/><text text-anchor="middle" pointer-events="none" font-size="8px" fill="#000000" x="63.50773953272956" y="3" font-family="sans-serif">BELONGS_TO</text></g><g class="relationship" transform="translate(29.36862185281469 368.24004696960793) rotate(256.29986341623993)"><path class="outline" fill="#D4D6D7" stroke="none" d="M 25 0.5 L 32.117340339016806 0.5 L 32.117340339016806 -0.5 L 25 -0.5 Z M 92.2149965890168 0.5 L 99.33233692803361 0.5 L 99.33233692803361 3.5 L 106.33233692803361 0 L 99.33233692803361 -3.5 L 99.33233692803361 -0.5 L 92.2149965890168 -0.5 Z"/><text text-anchor="middle" pointer-events="none" font-size="8px" fill="#000000" x="62.166168464016806" y="3" transform="rotate(180 62.166168464016806 0)" font-family="sans-serif">BELONGS_TO</text></g><g class="relationship" transform="translate(-47.321559587195644 367.44988389072984) rotate(289.77301681330067)"><path class="outline" fill="#D4D6D7" stroke="none" d="M 25 0.5 L 33.82639147872959 0.5 L 33.82639147872959 -0.5 L 25 -0.5 Z M 93.92404772872959 0.5 L 102.75043920745918 0.5 L 102.75043920745918 3.5 L 109.75043920745918 0 L 102.75043920745918 -3.5 L 102.75043920745918 -0.5 L 93.92404772872959 -0.5 Z"/><text text-anchor="middle" pointer-events="none" font-size="8px" fill="#000000" x="63.87521960372959" y="3" font-family="sans-serif">BELONGS_TO</text></g><g class="relationship" transform="translate(115.07941484279851 228.54982230332814) rotate(246.76556848212726)"><path class="outline" fill="#D4D6D7" stroke="none" d="M 25 0.5 L 33.82251654109707 0.5 L 33.82251654109707 -0.5 L 25 -0.5 Z M 93.92017279109707 0.5 L 102.74268933219415 0.5 L 102.74268933219415 3.5 L 109.74268933219415 0 L 102.74268933219415 -3.5 L 102.74268933219415 -0.5 L 93.92017279109707 -0.5 Z"/><text text-anchor="middle" pointer-events="none" font-size="8px" fill="#000000" x="63.87134466609707" y="3" transform="rotate(180 63.87134466609707 0)" font-family="sans-serif">BELONGS_TO</text></g><g class="relationship" transform="translate(60.233318634650956 -33.79938742133408) rotate(449.30070802829766)"><path class="outline" fill="#D4D6D7" stroke="none" d="M 25 0.5 L 35.72351282209847 0.5 L 35.72351282209847 -0.5 L 25 -0.5 Z M 95.82116907209847 0.5 L 106.54468189419694 0.5 L 106.54468189419694 3.5 L 113.54468189419694 0 L 106.54468189419694 -3.5 L 106.54468189419694 -0.5 L 95.82116907209847 -0.5 Z"/><text text-anchor="middle" pointer-events="none" font-size="8px" fill="#000000" x="65.77234094709847" y="3" font-family="sans-serif">BELONGS_TO</text></g><g class="relationship" transform="translate(60.233318634650956 -33.79938742133408) rotate(243.7738351186298)"><path class="outline" fill="#D4D6D7" stroke="none" d="M 25 0.5 L 30.631467640032085 0.5 L 30.631467640032085 -0.5 L 25 -0.5 Z M 90.72912389003208 0.5 L 96.36059153006417 0.5 L 96.36059153006417 3.5 L 103.36059153006417 0 L 96.36059153006417 -3.5 L 96.36059153006417 -0.5 L 90.72912389003208 -0.5 Z"/><text text-anchor="middle" pointer-events="none" font-size="8px" fill="#000000" x="60.680295765032085" y="3" transform="rotate(180 60.680295765032085 0)" font-family="sans-serif">BELONGS_TO</text></g></g><g class="layer nodes"><g class="node" transform="translate(163.8132942728638,361.49096587169873)"><circle class="outline" cx="0" cy="0" r="25" fill="#30B6AF" stroke="#46A39E" stroke-width="2px"/><text text-anchor="middle" pointer-events="none" font-family="sans-serif" dy="1.5625" font-size="25" fill="#FFFFFF"/><text text-anchor="middle" pointer-events="none" y="5" font-size="10px" fill="#FFFFFF" font-family="sans-serif"> Flask</text></g><g class="node" transform="translate(205.313552644877,148.6161451310712)"><circle class="outline" cx="0" cy="0" r="25" fill="#30B6AF" stroke="#46A39E" stroke-width="2px"/><text text-anchor="middle" pointer-events="none" font-family="sans-serif" dy="1.5625" font-size="25" fill="#FFFFFF"/><text text-anchor="middle" pointer-events="none" y="5" font-size="10px" fill="#FFFFFF" font-family="sans-serif"> Nodejs</text></g><g class="node" transform="translate(311.7728676385807,220.34529380939298)"><circle class="outline" cx="0" cy="0" r="25" fill="#30B6AF" stroke="#46A39E" stroke-width="2px"/><text text-anchor="middle" pointer-events="none" font-family="sans-serif" dy="1.5625" font-size="25" fill="#FFFFFF"/><text text-anchor="middle" pointer-events="none" y="5" font-size="10px" fill="#FFFFFF" font-family="sans-serif"> Express</text></g><g class="node" transform="translate(257.1932453999638,270.09547067412797)"><circle class="outline" cx="0" cy="0" r="25" fill="#30B6AF" stroke="#46A39E" stroke-width="2px"/><text text-anchor="middle" pointer-events="none" font-family="sans-serif" dy="1.5625" font-size="25" fill="#FFFFFF"/><text text-anchor="middle" pointer-events="none" y="5" font-size="10px" fill="#FFFFFF" font-family="sans-serif"> Socketio</text></g><g class="node" transform="translate(350.1298033278581,138.9273609436398)"><circle class="outline" cx="0" cy="0" r="25" fill="#30B6AF" stroke="#46A39E" stroke-width="2px"/><text text-anchor="middle" pointer-events="none" font-family="sans-serif" dy="1.5625" font-size="25" fill="#FFFFFF"/><text text-anchor="middle" pointer-events="none" y="5" font-size="10px" fill="#FFFFFF" font-family="sans-serif"> Mongoo…</text></g><g class="node" transform="translate(160.01784874216293,10.106691257619637)"><circle class="outline" cx="0" cy="0" r="25" fill="#30B6AF" stroke="#46A39E" stroke-width="2px"/><text text-anchor="middle" pointer-events="none" font-family="sans-serif" dy="1.5625" font-size="25" fill="#FFFFFF"/><text text-anchor="middle" pointer-events="none" y="5" font-size="10px" fill="#FFFFFF" font-family="sans-serif"> JavaScri…</text></g><g class="node" transform="translate(234.84145347358537,-100.46665850894664)"><circle class="outline" cx="0" cy="0" r="25" fill="#30B6AF" stroke="#46A39E" stroke-width="2px"/><text text-anchor="middle" pointer-events="none" font-family="sans-serif" dy="1.5625" font-size="25" fill="#FFFFFF"/><text text-anchor="middle" pointer-events="none" y="5" font-size="10px" fill="#FFFFFF" font-family="sans-serif"> YUI</text></g><g class="node" transform="translate(278.34505514990656,-27.21974657599189)"><circle class="outline" cx="0" cy="0" r="25" fill="#30B6AF" stroke="#46A39E" stroke-width="2px"/><text text-anchor="middle" pointer-events="none" font-family="sans-serif" dy="1.5625" font-size="25" fill="#FFFFFF"/><text text-anchor="middle" pointer-events="none" y="5" font-size="10px" fill="#FFFFFF" font-family="sans-serif"> jQuery</text></g><g class="node" transform="translate(161.38409215757252,-123.46807806945267)"><circle class="outline" cx="0" cy="0" r="25" fill="#30B6AF" stroke="#46A39E" stroke-width="2px"/><text text-anchor="middle" pointer-events="none" font-family="sans-serif" dy="1.5625" font-size="25" fill="#FFFFFF"/><text text-anchor="middle" pointer-events="none" y="5" font-size="10px" fill="#FFFFFF" font-family="sans-serif"> AngularJS</text></g><g class="node" transform="translate(533.7816901927602,38.71321221878695)"><circle class="outline" cx="0" cy="0" r="25" fill="#30B6AF" stroke="#46A39E" stroke-width="2px"/><text text-anchor="middle" pointer-events="none" font-family="sans-serif" dy="1.5625" font-size="25" fill="#FFFFFF"/><text text-anchor="middle" pointer-events="none" y="5" font-size="10px" fill="#FFFFFF" font-family="sans-serif"> DataBas…</text></g><g class="node" transform="translate(516.3016475786308,-74.14871089912592)"><circle class="outline" cx="0" cy="0" r="25" fill="#30B6AF" stroke="#46A39E" stroke-width="2px"/><text text-anchor="middle" pointer-events="none" font-family="sans-serif" dy="1.5625" font-size="25" fill="#FFFFFF"/><text text-anchor="middle" pointer-events="none" y="5" font-size="10px" fill="#FFFFFF" font-family="sans-serif"> MySQL</text></g><g class="node" transform="translate(476.3465695450091,137.21906717267223)"><circle class="outline" cx="0" cy="0" r="25" fill="#30B6AF" stroke="#46A39E" stroke-width="2px"/><text text-anchor="middle" pointer-events="none" font-family="sans-serif" dy="1.5625" font-size="25" fill="#FFFFFF"/><text text-anchor="middle" pointer-events="none" y="5" font-size="10px" fill="#FFFFFF" font-family="sans-serif"> MongoDB</text></g><g class="node" transform="translate(1.129313194160677,-22.60775277797898)"><circle class="outline" cx="0" cy="0" r="25" fill="#30B6AF" stroke="#46A39E" stroke-width="2px"/><text text-anchor="middle" pointer-events="none" font-family="sans-serif" dy="1.5625" font-size="25" fill="#FFFFFF"/><text text-anchor="middle" pointer-events="none" y="5" font-size="10px" fill="#FFFFFF" font-family="sans-serif"> Java</text></g><g class="node" transform="translate(3.5087770076341207,-148.94611049738523)"><circle class="outline" cx="0" cy="0" r="25" fill="#30B6AF" stroke="#46A39E" stroke-width="2px"/><text text-anchor="middle" pointer-events="none" font-family="sans-serif" dy="1.5625" font-size="25" fill="#FFFFFF"/><text text-anchor="middle" pointer-events="none" y="5" font-size="10px" fill="#FFFFFF" font-family="sans-serif"> Spring</text></g><g class="node" transform="translate(61.92420720119907,104.73497574181665)"><circle class="outline" cx="0" cy="0" r="25" fill="#30B6AF" stroke="#46A39E" stroke-width="2px"/><text text-anchor="middle" pointer-events="none" font-family="sans-serif" dy="1.5625" font-size="25" fill="#FFFFFF"/><text text-anchor="middle" pointer-events="none" y="5" font-size="10px" fill="#FFFFFF" font-family="sans-serif"> Web</text></g><g class="node" transform="translate(-63.21526072419853,88.45203433455686)"><circle class="outline" cx="0" cy="0" r="25" fill="#30B6AF" stroke="#46A39E" stroke-width="2px"/><text text-anchor="middle" pointer-events="none" font-family="sans-serif" dy="1.5625" font-size="25" fill="#FFFFFF"/><text text-anchor="middle" pointer-events="none" font-family="sans-serif" dy="1.5625" font-size="25" fill="#FFFFFF"/><text text-anchor="middle" pointer-events="none" y="0" font-size="10px" fill="#FFFFFF" font-family="sans-serif"> Semantic</text><text text-anchor="middle" pointer-events="none" y="10" font-size="10px" fill="#FFFFFF" font-family="sans-serif"> Web</text></g><g class="node" transform="translate(-35.05601439841013,166.98455029423621)"><circle class="outline" cx="0" cy="0" r="25" fill="#30B6AF" stroke="#46A39E" stroke-width="2px"/><text text-anchor="middle" pointer-events="none" font-family="sans-serif" dy="1.5625" font-size="25" fill="#FFFFFF"/><text text-anchor="middle" pointer-events="none" y="5" font-size="10px" fill="#FFFFFF" font-family="sans-serif"> Microdata</text></g><g class="node" transform="translate(-197.73260820246503,-47.807000014782204)"><circle class="outline" cx="0" cy="0" r="25" fill="#30B6AF" stroke="#46A39E" stroke-width="2px"/><text text-anchor="middle" pointer-events="none" font-family="sans-serif" dy="1.5625" font-size="25" fill="#FFFFFF"/><text text-anchor="middle" pointer-events="none" y="5" font-size="10px" fill="#FFFFFF" font-family="sans-serif"> HTTP</text></g><g class="node" transform="translate(-241.22582323393283,-152.94361461187123)"><circle class="outline" cx="0" cy="0" r="25" fill="#30B6AF" stroke="#46A39E" stroke-width="2px"/><text text-anchor="middle" pointer-events="none" font-family="sans-serif" dy="1.5625" font-size="25" fill="#FFFFFF"/><text text-anchor="middle" pointer-events="none" y="5" font-size="10px" fill="#FFFFFF" font-family="sans-serif"> REST</text></g><g class="node" transform="translate(-78.28787491244296,24.104637847860868)"><circle class="outline" cx="0" cy="0" r="25" fill="#30B6AF" stroke="#46A39E" stroke-width="2px"/><text text-anchor="middle" pointer-events="none" font-family="sans-serif" dy="1.5625" font-size="25" fill="#FFFFFF"/><text text-anchor="middle" pointer-events="none" y="5" font-size="10px" fill="#FFFFFF" font-family="sans-serif"> Sockets</text></g><g class="node" transform="translate(-1.7361895111387358,240.64430474835896)"><circle class="outline" cx="0" cy="0" r="25" fill="#30B6AF" stroke="#46A39E" stroke-width="2px"/><text text-anchor="middle" pointer-events="none" font-family="sans-serif" dy="1.5625" font-size="25" fill="#FFFFFF"/><text text-anchor="middle" pointer-events="none" y="5" font-size="10px" fill="#FFFFFF" font-family="sans-serif"> PHP</text></g><g class="node" transform="translate(-109.33078551959602,321.11614473178525)"><circle class="outline" cx="0" cy="0" r="25" fill="#30B6AF" stroke="#46A39E" stroke-width="2px"/><text text-anchor="middle" pointer-events="none" font-family="sans-serif" dy="1.5625" font-size="25" fill="#FFFFFF"/><text text-anchor="middle" pointer-events="none" y="5" font-size="10px" fill="#FFFFFF" font-family="sans-serif"> Symfony</text></g><g class="node" transform="translate(-135.63649626511415,246.19916571293805)"><circle class="outline" cx="0" cy="0" r="25" fill="#30B6AF" stroke="#46A39E" stroke-width="2px"/><text text-anchor="middle" pointer-events="none" font-family="sans-serif" dy="1.5625" font-size="25" fill="#FFFFFF"/><text text-anchor="middle" pointer-events="none" y="5" font-size="10px" fill="#FFFFFF" font-family="sans-serif"> Kohana</text></g><g class="node" transform="translate(29.36862185281469,368.24004696960793)"><circle class="outline" cx="0" cy="0" r="25" fill="#30B6AF" stroke="#46A39E" stroke-width="2px"/><text text-anchor="middle" pointer-events="none" font-family="sans-serif" dy="1.5625" font-size="25" fill="#FFFFFF"/><text text-anchor="middle" pointer-events="none" y="5" font-size="10px" fill="#FFFFFF" font-family="sans-serif"> CodeIgn…</text></g><g class="node" transform="translate(-47.321559587195644,367.44988389072984)"><circle class="outline" cx="0" cy="0" r="25" fill="#30B6AF" stroke="#46A39E" stroke-width="2px"/><text text-anchor="middle" pointer-events="none" font-family="sans-serif" dy="1.5625" font-size="25" fill="#FFFFFF"/><text text-anchor="middle" pointer-events="none" y="5" font-size="10px" fill="#FFFFFF" font-family="sans-serif"> Doctrine2</text></g><g class="node" transform="translate(115.07941484279851,228.54982230332814)"><circle class="outline" cx="0" cy="0" r="25" fill="#30B6AF" stroke="#46A39E" stroke-width="2px"/><text text-anchor="middle" pointer-events="none" font-family="sans-serif" dy="1.5625" font-size="25" fill="#FFFFFF"/><text text-anchor="middle" pointer-events="none" y="5" font-size="10px" fill="#FFFFFF" font-family="sans-serif"> Python</text></g><g class="node" transform="translate(60.233318634650956,-33.79938742133408)"><circle class="outline" cx="0" cy="0" r="25" fill="#30B6AF" stroke="#46A39E" stroke-width="2px"/><text text-anchor="middle" pointer-events="none" font-family="sans-serif" dy="1.5625" font-size="25" fill="#FFFFFF"/><text text-anchor="middle" pointer-events="none" font-family="sans-serif" dy="1.5625" font-size="25" fill="#FFFFFF"/><text text-anchor="middle" pointer-events="none" y="0" font-size="10px" fill="#FFFFFF" font-family="sans-serif"> Spring</text><text text-anchor="middle" pointer-events="none" y="10" font-size="10px" fill="#FFFFFF" font-family="sans-serif"> Web</text></g></g></svg>